<?xml version="1.0" encoding="UTF-8"?>
<svg xmlns="http://www.w3.org/2000/svg" xmlns:xlink="http://www.w3.org/1999/xlink" width="18pt" height="18pt" viewBox="0 0 18 18" version="1.1">
<g id="surface67790">
<path style=" stroke:none;fill-rule:nonzero;fill:rgb(9.019608%,9.019608%,9.411765%);fill-opacity:1;" d="M 13.75 3.75 C 12.785156 3.75 12 4.589844 12 5.625 C 12 6.660156 12.785156 7.5 13.75 7.5 C 15.0625 7.5 17.25 5.625 17.25 5.625 C 17.25 5.625 15.0625 3.75 13.75 3.75 Z M 13.75 3.75 "/>
<path style=" stroke:none;fill-rule:nonzero;fill:rgb(9.019608%,9.019608%,9.411765%);fill-opacity:1;" d="M 9 3.75 C 7.726562 3.75 6.75 4.726562 6.75 6 C 6.75 7.273438 7.726562 8.25 9 8.25 C 10.273438 8.25 11.25 7.273438 11.25 6 C 11.25 4.726562 10.273438 3.75 9 3.75 Z M 9 3.75 "/>
<path style=" stroke:none;fill-rule:nonzero;fill:rgb(9.019608%,9.019608%,9.411765%);fill-opacity:1;" d="M 2.25 5.25 L 2.25 7.5 L 0 7.5 L 0 9 L 2.25 9 L 2.25 11.25 L 3.75 11.25 L 3.75 9 L 6 9 L 6 7.5 L 3.75 7.5 L 3.75 5.25 Z M 2.25 5.25 "/>
<path style=" stroke:none;fill-rule:nonzero;fill:rgb(9.019608%,9.019608%,9.411765%);fill-opacity:1;" d="M 13.875 9 C 12.976562 9 12.289062 9.234375 11.765625 9.609375 C 13.492188 10.433594 14.179688 11.851562 14.179688 12 L 17.25 12 L 17.25 11.109375 C 17.25 11.035156 16.425781 9 13.875 9 Z M 13.875 9 "/>
<path style=" stroke:none;fill-rule:nonzero;fill:rgb(9.019608%,9.019608%,9.411765%);fill-opacity:1;" d="M 9 9.75 C 5.550781 9.75 4.5 12.234375 4.5 12.234375 L 4.5 13.5 L 13.5 13.5 L 13.5 12.234375 C 13.5 12.234375 12.449219 9.75 9 9.75 Z M 9 9.75 "/>
</g>
</svg>
