<?xml version="1.0" encoding="UTF-8"?>
<svg xmlns="http://www.w3.org/2000/svg" xmlns:xlink="http://www.w3.org/1999/xlink" width="18pt" height="18pt" viewBox="0 0 18 18" version="1.1">
<g id="surface6314">
<path style="fill:none;stroke-width:2;stroke-linecap:round;stroke-linejoin:round;stroke:rgb(9.019608%,9.019608%,9.411765%);stroke-opacity:1;stroke-miterlimit:10;" d="M 23.993389 17.007212 L 23.993389 21.003606 " transform="matrix(0.26,0,0,0.26,0,0)"/>
<path style="fill:none;stroke-width:2;stroke-linecap:round;stroke-linejoin:round;stroke:rgb(9.019608%,9.019608%,9.411765%);stroke-opacity:1;stroke-miterlimit:10;" d="M 23.993389 7.992788 L 23.993389 10.997596 " transform="matrix(0.26,0,0,0.26,0,0)"/>
<path style="fill:none;stroke-width:2;stroke-linecap:butt;stroke-linejoin:miter;stroke:rgb(9.019608%,9.019608%,9.411765%);stroke-opacity:1;stroke-miterlimit:10;" d="M 26.006611 5.003005 C 26.006611 6.09976 25.105168 7.001202 23.993389 7.001202 C 22.896635 7.001202 21.995192 6.09976 21.995192 5.003005 C 21.995192 3.891226 22.896635 3.004808 23.993389 3.004808 C 25.105168 3.004808 26.006611 3.891226 26.006611 5.003005 Z M 26.006611 5.003005 " transform="matrix(0.26,0,0,0.26,0,0)"/>
<path style="fill:none;stroke-width:2;stroke-linecap:butt;stroke-linejoin:miter;stroke:rgb(9.019608%,9.019608%,9.411765%);stroke-opacity:1;stroke-miterlimit:10;" d="M 26.006611 14.002404 C 26.006611 15.099159 25.105168 16.000601 23.993389 16.000601 C 22.896635 16.000601 21.995192 15.099159 21.995192 14.002404 C 21.995192 12.890625 22.896635 12.004207 23.993389 12.004207 C 25.105168 12.004207 26.006611 12.890625 26.006611 14.002404 Z M 26.006611 14.002404 " transform="matrix(0.26,0,0,0.26,0,0)"/>
<path style="fill:none;stroke-width:2;stroke-linecap:butt;stroke-linejoin:miter;stroke:rgb(9.019608%,9.019608%,9.411765%);stroke-opacity:1;stroke-miterlimit:10;" d="M 26.006611 23.001803 C 26.006611 24.098558 25.105168 25 23.993389 25 C 22.896635 25 21.995192 24.098558 21.995192 23.001803 C 21.995192 21.890024 22.896635 21.003606 23.993389 21.003606 C 25.105168 21.003606 26.006611 21.890024 26.006611 23.001803 Z M 26.006611 23.001803 " transform="matrix(0.26,0,0,0.26,0,0)"/>
<path style="fill:none;stroke-width:2;stroke-linecap:round;stroke-linejoin:round;stroke:rgb(9.019608%,9.019608%,9.411765%);stroke-opacity:1;stroke-miterlimit:10;" d="M 23.993389 26.006611 L 23.993389 30.003005 " transform="matrix(0.26,0,0,0.26,0,0)"/>
<path style="fill:none;stroke-width:2;stroke-linecap:butt;stroke-linejoin:miter;stroke:rgb(9.019608%,9.019608%,9.411765%);stroke-opacity:1;stroke-miterlimit:10;" d="M 26.006611 32.001202 C 26.006611 33.097957 25.105168 33.999399 23.993389 33.999399 C 22.896635 33.999399 21.995192 33.097957 21.995192 32.001202 C 21.995192 30.889423 22.896635 30.003005 23.993389 30.003005 C 25.105168 30.003005 26.006611 30.889423 26.006611 32.001202 Z M 26.006611 32.001202 " transform="matrix(0.26,0,0,0.26,0,0)"/>
<path style="fill:none;stroke-width:2;stroke-linecap:round;stroke-linejoin:round;stroke:rgb(9.019608%,9.019608%,9.411765%);stroke-opacity:1;stroke-miterlimit:10;" d="M 23.993389 35.00601 L 23.993389 39.002404 " transform="matrix(0.26,0,0,0.26,0,0)"/>
<path style="fill:none;stroke-width:2;stroke-linecap:butt;stroke-linejoin:miter;stroke:rgb(9.019608%,9.019608%,9.411765%);stroke-opacity:1;stroke-miterlimit:10;" d="M 26.006611 41.000601 C 26.006611 42.097356 25.105168 42.998798 23.993389 42.998798 C 22.896635 42.998798 21.995192 42.097356 21.995192 41.000601 C 21.995192 39.888822 22.896635 39.002404 23.993389 39.002404 C 25.105168 39.002404 26.006611 39.888822 26.006611 41.000601 Z M 26.006611 41.000601 " transform="matrix(0.26,0,0,0.26,0,0)"/>
<path style="fill:none;stroke-width:2;stroke-linecap:butt;stroke-linejoin:miter;stroke:rgb(9.019608%,9.019608%,9.411765%);stroke-opacity:1;stroke-miterlimit:10;" d="M 35.00601 12.995793 C 35.00601 14.107572 34.104567 14.99399 32.992788 14.99399 C 31.896034 14.99399 30.994591 14.107572 30.994591 12.995793 C 30.994591 11.899038 31.896034 10.997596 32.992788 10.997596 C 34.104567 10.997596 35.00601 11.899038 35.00601 12.995793 Z M 35.00601 12.995793 " transform="matrix(0.26,0,0,0.26,0,0)"/>
<path style="fill:none;stroke-width:2;stroke-linecap:butt;stroke-linejoin:miter;stroke:rgb(9.019608%,9.019608%,9.411765%);stroke-opacity:1;stroke-miterlimit:10;" d="M 37.004207 25 C 37.004207 26.111779 36.102764 26.998197 35.00601 26.998197 C 33.894231 26.998197 32.992788 26.111779 32.992788 25 C 32.992788 23.888221 33.894231 23.001803 35.00601 23.001803 C 36.102764 23.001803 37.004207 23.888221 37.004207 25 Z M 37.004207 25 " transform="matrix(0.26,0,0,0.26,0,0)"/>
<path style="fill:none;stroke-width:2;stroke-linecap:butt;stroke-linejoin:miter;stroke:rgb(9.019608%,9.019608%,9.411765%);stroke-opacity:1;stroke-miterlimit:10;" d="M 46.995192 21.995192 C 46.995192 23.106971 46.108774 23.993389 44.996995 23.993389 C 43.90024 23.993389 42.998798 23.106971 42.998798 21.995192 C 42.998798 20.898437 43.90024 19.996995 44.996995 19.996995 C 46.108774 19.996995 46.995192 20.898437 46.995192 21.995192 Z M 46.995192 21.995192 " transform="matrix(0.26,0,0,0.26,0,0)"/>
<path style="fill:none;stroke-width:2;stroke-linecap:butt;stroke-linejoin:miter;stroke:rgb(9.019608%,9.019608%,9.411765%);stroke-opacity:1;stroke-miterlimit:10;" d="M 17.007212 14.99399 C 17.007212 16.105769 16.105769 17.007212 14.99399 17.007212 C 13.897236 17.007212 12.995793 16.105769 12.995793 14.99399 C 12.995793 13.897236 13.897236 12.995793 14.99399 12.995793 C 16.105769 12.995793 17.007212 13.897236 17.007212 14.99399 Z M 17.007212 14.99399 " transform="matrix(0.26,0,0,0.26,0,0)"/>
<path style="fill:none;stroke-width:2;stroke-linecap:butt;stroke-linejoin:miter;stroke:rgb(9.019608%,9.019608%,9.411765%);stroke-opacity:1;stroke-miterlimit:10;" d="M 14.002404 26.998197 C 14.002404 28.109976 13.100962 28.996394 12.004207 28.996394 C 10.892428 28.996394 10.00601 28.109976 10.00601 26.998197 C 10.00601 25.901442 10.892428 25 12.004207 25 C 13.100962 25 14.002404 25.901442 14.002404 26.998197 Z M 14.002404 26.998197 " transform="matrix(0.26,0,0,0.26,0,0)"/>
<path style="fill:none;stroke-width:2;stroke-linecap:butt;stroke-linejoin:miter;stroke:rgb(9.019608%,9.019608%,9.411765%);stroke-opacity:1;stroke-miterlimit:10;" d="M 7.001202 37.004207 C 7.001202 38.100962 6.09976 39.002404 5.003005 39.002404 C 3.891226 39.002404 3.004808 38.100962 3.004808 37.004207 C 3.004808 35.892428 3.891226 35.00601 5.003005 35.00601 C 6.09976 35.00601 7.001202 35.892428 7.001202 37.004207 Z M 7.001202 37.004207 " transform="matrix(0.26,0,0,0.26,0,0)"/>
<path style="fill:none;stroke-width:2;stroke-linecap:butt;stroke-linejoin:miter;stroke:rgb(9.019608%,9.019608%,9.411765%);stroke-opacity:1;stroke-miterlimit:10;" d="M 17.998798 41.000601 C 17.998798 42.097356 17.097356 42.998798 16.000601 42.998798 C 14.888822 42.998798 14.002404 42.097356 14.002404 41.000601 C 14.002404 39.888822 14.888822 39.002404 16.000601 39.002404 C 17.097356 39.002404 17.998798 39.888822 17.998798 41.000601 Z M 17.998798 41.000601 " transform="matrix(0.26,0,0,0.26,0,0)"/>
<path style="fill:none;stroke-width:2;stroke-linecap:butt;stroke-linejoin:miter;stroke:rgb(9.019608%,9.019608%,9.411765%);stroke-opacity:1;stroke-miterlimit:10;" d="M 33.999399 41.000601 C 33.999399 42.097356 33.097957 42.998798 32.001202 42.998798 C 30.889423 42.998798 30.003005 42.097356 30.003005 41.000601 C 30.003005 39.888822 30.889423 39.002404 32.001202 39.002404 C 33.097957 39.002404 33.999399 39.888822 33.999399 41.000601 Z M 33.999399 41.000601 " transform="matrix(0.26,0,0,0.26,0,0)"/>
<path style="fill:none;stroke-width:2;stroke-linecap:round;stroke-linejoin:round;stroke:rgb(9.019608%,9.019608%,9.411765%);stroke-opacity:1;stroke-miterlimit:10;" d="M 21.995192 14.287861 L 17.007212 14.99399 " transform="matrix(0.26,0,0,0.26,0,0)"/>
<path style="fill:none;stroke-width:2;stroke-linecap:round;stroke-linejoin:round;stroke:rgb(9.019608%,9.019608%,9.411765%);stroke-opacity:1;stroke-miterlimit:10;" d="M 30.994591 12.995793 L 26.006611 13.716947 " transform="matrix(0.26,0,0,0.26,0,0)"/>
<path style="fill:none;stroke-width:2;stroke-linecap:round;stroke-linejoin:round;stroke:rgb(9.019608%,9.019608%,9.411765%);stroke-opacity:1;stroke-miterlimit:10;" d="M 14.002404 17.007212 L 12.995793 25 " transform="matrix(0.26,0,0,0.26,0,0)"/>
<path style="fill:none;stroke-width:2;stroke-linecap:round;stroke-linejoin:round;stroke:rgb(9.019608%,9.019608%,9.411765%);stroke-opacity:1;stroke-miterlimit:10;" d="M 10.997596 28.996394 L 6.460337 35.276442 " transform="matrix(0.26,0,0,0.26,0,0)"/>
<path style="fill:none;stroke-width:2;stroke-linecap:round;stroke-linejoin:round;stroke:rgb(9.019608%,9.019608%,9.411765%);stroke-opacity:1;stroke-miterlimit:10;" d="M 33.999399 14.99399 L 35.00601 23.001803 " transform="matrix(0.26,0,0,0.26,0,0)"/>
<path style="fill:none;stroke-width:2;stroke-linecap:round;stroke-linejoin:round;stroke:rgb(9.019608%,9.019608%,9.411765%);stroke-opacity:1;stroke-miterlimit:10;" d="M 37.004207 25 L 42.998798 23.001803 " transform="matrix(0.26,0,0,0.26,0,0)"/>
<path style="fill:none;stroke-width:2;stroke-linecap:round;stroke-linejoin:round;stroke:rgb(9.019608%,9.019608%,9.411765%);stroke-opacity:1;stroke-miterlimit:10;" d="M 26.006611 41.000601 L 30.003005 41.000601 " transform="matrix(0.26,0,0,0.26,0,0)"/>
<path style="fill:none;stroke-width:2;stroke-linecap:round;stroke-linejoin:round;stroke:rgb(9.019608%,9.019608%,9.411765%);stroke-opacity:1;stroke-miterlimit:10;" d="M 17.998798 41.000601 L 21.995192 41.000601 " transform="matrix(0.26,0,0,0.26,0,0)"/>
<path style="fill:none;stroke-width:2;stroke-linecap:round;stroke-linejoin:round;stroke:rgb(9.019608%,9.019608%,9.411765%);stroke-opacity:1;stroke-miterlimit:10;" d="M 16.000601 42.998798 L 16.000601 46.995192 " transform="matrix(0.26,0,0,0.26,0,0)"/>
<path style="fill:none;stroke-width:2;stroke-linecap:round;stroke-linejoin:round;stroke:rgb(9.019608%,9.019608%,9.411765%);stroke-opacity:1;stroke-miterlimit:10;" d="M 32.001202 42.998798 L 32.001202 46.995192 " transform="matrix(0.26,0,0,0.26,0,0)"/>
</g>
</svg>
