<?xml version="1.0" encoding="UTF-8"?>
<svg xmlns="http://www.w3.org/2000/svg" xmlns:xlink="http://www.w3.org/1999/xlink" width="18pt" height="18pt" viewBox="0 0 18 18" version="1.1">
<g id="surface74893">
<path style="fill:none;stroke-width:2;stroke-linecap:butt;stroke-linejoin:miter;stroke:rgb(9.019608%,9.019608%,9.411765%);stroke-opacity:1;stroke-miterlimit:10;" d="M 17 12 L 22 8 L 22 16 L 17 12 " transform="matrix(0.75,0,0,0.75,0,0)"/>
<path style=" stroke:none;fill-rule:nonzero;fill:rgb(9.019608%,9.019608%,9.411765%);fill-opacity:1;" d="M 12.75 9 L 16.5 6 L 16.5 12 L 12.75 9 "/>
<path style=" stroke:none;fill-rule:nonzero;fill:rgb(9.019608%,9.019608%,9.411765%);fill-opacity:1;" d="M 7.5 7.5 C 6.671875 7.5 6 8.171875 6 9 C 6 9.828125 6.671875 10.5 7.5 10.5 C 8.328125 10.5 9 9.828125 9 9 C 9 8.171875 8.328125 7.5 7.5 7.5 Z M 7.5 7.5 "/>
<path style=" stroke:none;fill-rule:nonzero;fill:rgb(9.019608%,9.019608%,9.411765%);fill-opacity:1;" d="M 12 3.75 L 3 3.75 C 2.171875 3.75 1.5 4.421875 1.5 5.25 L 1.5 12.75 C 1.5 13.578125 2.171875 14.25 3 14.25 L 12 14.25 C 12.828125 14.25 13.5 13.578125 13.5 12.75 L 13.5 5.25 C 13.5 4.421875 12.828125 3.75 12 3.75 Z M 8.203125 5.25 C 8.296875 5.25 8.378906 5.320312 8.390625 5.417969 L 8.480469 6.175781 C 8.839844 6.304688 9.171875 6.496094 9.453125 6.742188 L 10.15625 6.4375 C 10.246094 6.398438 10.347656 6.433594 10.398438 6.515625 L 11.097656 7.734375 C 11.148438 7.816406 11.125 7.921875 11.046875 7.980469 L 10.441406 8.429688 C 10.476562 8.617188 10.5 8.804688 10.5 9 C 10.5 9.195312 10.476562 9.382812 10.441406 9.570312 L 11.046875 10.019531 C 11.125 10.078125 11.148438 10.183594 11.097656 10.265625 L 10.398438 11.484375 C 10.347656 11.566406 10.246094 11.601562 10.15625 11.5625 L 9.453125 11.257812 C 9.171875 11.503906 8.839844 11.695312 8.480469 11.824219 L 8.390625 12.582031 C 8.378906 12.679688 8.296875 12.75 8.203125 12.75 L 6.796875 12.75 C 6.703125 12.75 6.621094 12.679688 6.609375 12.582031 L 6.519531 11.824219 C 6.160156 11.695312 5.828125 11.503906 5.546875 11.257812 L 4.84375 11.5625 C 4.753906 11.601562 4.652344 11.566406 4.601562 11.484375 L 3.902344 10.265625 C 3.851562 10.183594 3.875 10.078125 3.953125 10.019531 L 4.558594 9.570312 C 4.523438 9.382812 4.5 9.195312 4.5 9 C 4.5 8.804688 4.523438 8.617188 4.558594 8.429688 L 3.953125 7.980469 C 3.875 7.921875 3.851562 7.816406 3.902344 7.734375 L 4.601562 6.515625 C 4.652344 6.433594 4.753906 6.398438 4.84375 6.4375 L 5.546875 6.742188 C 5.828125 6.496094 6.160156 6.304688 6.519531 6.175781 L 6.609375 5.417969 C 6.621094 5.320312 6.703125 5.25 6.796875 5.25 Z M 8.203125 5.25 "/>
</g>
</svg>
