<?xml version="1.0" encoding="UTF-8"?>
<svg xmlns="http://www.w3.org/2000/svg" xmlns:xlink="http://www.w3.org/1999/xlink" width="18pt" height="18pt" viewBox="0 0 18 18" version="1.1">
<g id="surface38289">
<path style="fill:none;stroke-width:4;stroke-linecap:round;stroke-linejoin:round;stroke:rgb(9.019608%,9.019608%,9.411765%);stroke-opacity:1;stroke-miterlimit:10;" d="M 13.001478 38.497677 C 13.001478 41.495988 15.398015 45.001056 19.499578 45.001056 C 22.302576 45.001056 24.229307 43.644426 25.934333 40.281883 C 32.553843 27.164274 38.001478 28.3731 38.001478 16.501267 C 38.001478 10.626056 33.398438 4.998944 26.499155 4.998944 C 19.599873 4.998944 15.471917 10.61022 15.04962 15.498311 " transform="matrix(0.74,0,0,0.74,0,0)"/>
<path style="fill:none;stroke-width:4;stroke-linecap:round;stroke-linejoin:miter;stroke:rgb(9.019608%,9.019608%,9.411765%);stroke-opacity:1;stroke-miterlimit:10;" d="M 32.923353 15.561655 C 32.923353 13.751056 30.452914 9.997889 26.499155 9.997889 C 23.458615 9.997889 20.001056 12.399704 20.001056 16.501267 C 20.001056 19.441512 16.997466 20.602829 16.997466 22.001689 C 16.997466 22.899071 18.047931 22.90435 18.950591 23.469172 C 20.001056 24.060389 20.998733 25.100296 20.998733 26.499155 C 20.998733 28.267525 19.77935 28.642314 18.185177 29.639992 C 17.008024 30.379012 16.997466 31.999578 16.997466 31.999578 C 16.997466 34.200802 19.029772 34.860642 19.029772 34.860642 " transform="matrix(0.74,0,0,0.74,0,0)"/>
</g>
</svg>
