<?xml version="1.0" encoding="UTF-8"?>
<svg xmlns="http://www.w3.org/2000/svg" xmlns:xlink="http://www.w3.org/1999/xlink" width="18pt" height="18pt" viewBox="0 0 18 18" version="1.1">
<g id="surface39241">
<path style=" stroke:none;fill-rule:nonzero;fill:rgb(9.019608%,9.019608%,9.411765%);fill-opacity:1;" d="M 24.1875 18 C 24.1875 21.417969 21.417969 24.1875 18 24.1875 C 14.582031 24.1875 11.8125 21.417969 11.8125 18 C 11.8125 14.582031 14.582031 11.8125 18 11.8125 C 21.417969 11.8125 24.1875 14.582031 24.1875 18 Z M 18 15.75 C 16.757812 15.75 15.75 16.757812 15.75 18 C 15.75 19.242188 16.757812 20.25 18 20.25 C 19.242188 20.25 20.25 19.242188 20.25 18 C 20.25 16.757812 19.242188 15.75 18 15.75 Z M 18 15.75 "/>
<path style=" stroke:none;fill-rule:nonzero;fill:rgb(9.019608%,9.019608%,9.411765%);fill-opacity:1;" d="M 18 28.125 C 9.84375 28.125 2.8125 21.332031 2.8125 18 C 2.8125 14.667969 9.84375 7.875 18 7.875 C 26.15625 7.875 33.1875 14.667969 33.1875 18 C 33.1875 21.332031 26.15625 28.125 18 28.125 Z M 18 10.125 C 10.71875 10.125 5.0625 16.40625 5.0625 18 C 5.0625 19.59375 10.71875 25.875 18 25.875 C 25.28125 25.875 30.9375 19.59375 30.9375 18 C 30.9375 16.40625 25.28125 10.125 18 10.125 Z M 18 10.125 "/>
</g>
</svg>
