<?xml version="1.0" encoding="UTF-8"?>
<svg xmlns="http://www.w3.org/2000/svg" xmlns:xlink="http://www.w3.org/1999/xlink" width="18pt" height="18pt" viewBox="0 0 18 18" version="1.1">
<g id="surface1130">
<path style=" stroke:none;fill-rule:nonzero;fill:rgb(9.019608%,9.019608%,9.411765%);fill-opacity:1;" d="M 3 1.5 L 3 6.75 L 1.5 6.75 L 1.5 13.5 L 3 13.5 L 3 16.5 L 15 16.5 L 15 5.25 L 11.25 1.5 Z M 4.5 3 L 10.5 3 L 10.5 6 L 13.5 6 L 13.5 6.75 L 4.5 6.75 Z M 3 8.25 L 5.25 8.25 L 5.25 9 L 3.75 9 L 3.75 9.75 L 4.949219 9.75 L 4.949219 10.5 L 3.75 10.5 L 3.75 12 L 3 12 Z M 6 8.25 L 7.125 8.25 C 7.746094 8.25 8.25 8.753906 8.25 9.375 C 8.25 9.664062 8.136719 9.925781 7.957031 10.125 C 8.136719 10.324219 8.25 10.585938 8.25 10.875 C 8.25 11.496094 7.746094 12 7.125 12 L 6 12 Z M 9.019531 8.25 L 9.957031 8.25 L 10.5 9.539062 L 11.042969 8.25 L 11.976562 8.25 L 11.027344 10.109375 L 12 12 L 11.054688 12 L 10.5 10.6875 L 9.945312 12 L 9 12 L 9.972656 10.109375 Z M 6.75 9 L 6.75 9.75 L 7.125 9.75 C 7.332031 9.75 7.5 9.582031 7.5 9.375 C 7.5 9.167969 7.332031 9 7.125 9 Z M 6.75 10.5 L 6.75 11.25 L 7.125 11.25 C 7.332031 11.25 7.5 11.082031 7.5 10.875 C 7.5 10.667969 7.332031 10.5 7.125 10.5 Z M 4.5 13.5 L 13.5 13.5 L 13.5 15 L 4.5 15 Z M 4.5 13.5 "/>
</g>
</svg>
