<?xml version="1.0" encoding="UTF-8"?>
<svg xmlns="http://www.w3.org/2000/svg" xmlns:xlink="http://www.w3.org/1999/xlink" width="18pt" height="18pt" viewBox="0 0 18 18" version="1.1">
<g id="surface65609">
<path style=" stroke:none;fill-rule:nonzero;fill:rgb(9.019608%,9.019608%,9.411765%);fill-opacity:1;" d="M 24.421875 17.019531 C 24.421875 17.835938 23.757812 18.5 22.941406 18.5 C 22.121094 18.5 21.460938 17.835938 21.460938 17.019531 C 21.460938 16.203125 22.121094 15.539062 22.941406 15.539062 C 23.757812 15.539062 24.421875 16.203125 24.421875 17.019531 Z M 24.421875 17.019531 "/>
<path style="fill:none;stroke-width:2;stroke-linecap:butt;stroke-linejoin:round;stroke:rgb(9.019608%,9.019608%,9.411765%);stroke-opacity:1;stroke-miterlimit:10;" d="M 0.997677 45.001056 C 0.997677 45.001056 4.998944 47.999367 20.001056 47.999367 L 20.001056 22.999367 C 32.247677 16.960515 34.000211 6.999578 34.000211 6.999578 C 34.000211 6.999578 29.497466 2.000633 20.001056 2.000633 C 6.999578 2.000633 0.997677 11.570946 0.997677 20.998733 C 0.997677 29.998944 2.998311 31.999578 2.998311 37.600296 C 2.998311 41.997466 0.997677 45.001056 0.997677 45.001056 Z M 0.997677 45.001056 " transform="matrix(0.74,0,0,0.74,0,0)"/>
<path style="fill:none;stroke-width:2;stroke-linecap:round;stroke-linejoin:round;stroke:rgb(9.019608%,9.019608%,9.411765%);stroke-opacity:1;stroke-miterlimit:10;" d="M 27.000633 47.999367 L 27.000633 43.000422 L 31.0019 43.000422 C 34.311655 43.000422 36.998522 40.313556 36.998522 36.998522 L 36.998522 29.998944 L 47.497889 29.998944 C 48.326647 29.998944 49.002323 29.328547 49.002323 28.499789 C 49.002323 27.845228 48.585304 27.290963 47.999367 27.085093 C 47.899071 27.048142 41.997466 25.997677 39.748733 24.002323 C 37.822002 22.28674 36.623733 20.001056 36.000845 16.997466 C 35.399071 14.10473 34.396115 11.687078 33.145059 9.681166 " transform="matrix(0.74,0,0,0.74,0,0)"/>
</g>
</svg>
