<?xml version="1.0" encoding="UTF-8"?>
<svg xmlns="http://www.w3.org/2000/svg" xmlns:xlink="http://www.w3.org/1999/xlink" width="18pt" height="18pt" viewBox="0 0 18 18" version="1.1">
<g id="surface3232">
<path style=" stroke:none;fill-rule:nonzero;fill:rgb(9.019608%,9.019608%,9.411765%);fill-opacity:1;" d="M 2.25 7.5 L 2.25 3 L 6.75 7.5 Z M 2.25 7.5 "/>
<path style=" stroke:none;fill-rule:nonzero;fill:rgb(9.019608%,9.019608%,9.411765%);fill-opacity:1;" d="M 15.75 10.5 L 15.75 15 L 11.25 10.5 Z M 15.75 10.5 "/>
<path style=" stroke:none;fill-rule:nonzero;fill:rgb(9.019608%,9.019608%,9.411765%);fill-opacity:1;" d="M 2.644531 6.75 L 4.265625 6.75 C 5.109375 4.980469 6.910156 3.75 9 3.75 C 11.894531 3.75 14.25 6.105469 14.25 9 L 15.75 9 C 15.75 5.277344 12.722656 2.25 9 2.25 C 6.066406 2.25 3.574219 4.132812 2.644531 6.75 Z M 2.644531 6.75 "/>
<path style=" stroke:none;fill-rule:nonzero;fill:rgb(9.019608%,9.019608%,9.411765%);fill-opacity:1;" d="M 3.75 9 L 2.25 9 C 2.25 12.722656 5.277344 15.75 9 15.75 C 11.933594 15.75 14.425781 13.867188 15.355469 11.25 L 13.734375 11.25 C 12.890625 13.019531 11.089844 14.25 9 14.25 C 6.105469 14.25 3.75 11.894531 3.75 9 Z M 3.75 9 "/>
</g>
</svg>
